<svg width="13" height="13" viewBox="0 0 13 13" fill="none" xmlns="http://www.w3.org/2000/svg">
<g clip-path="url(#clip0_2151_1375)">
<path d="M6.50065 4.33301C7.39811 4.33301 8.12565 3.60547 8.12565 2.70801C8.12565 1.81055 7.39811 1.08301 6.50065 1.08301C5.60319 1.08301 4.87565 1.81055 4.87565 2.70801C4.87565 3.60547 5.60319 4.33301 6.50065 4.33301ZM6.50065 4.33301V11.9163M6.50065 11.9163C5.06406 11.9163 3.68631 11.3457 2.67049 10.3298C1.65467 9.31401 1.08398 7.93626 1.08398 6.49967H2.70898M6.50065 11.9163C7.93724 11.9163 9.31499 11.3457 10.3308 10.3298C11.3466 9.31401 11.9173 7.93626 11.9173 6.49967H10.2923" stroke="#219AF3" stroke-width="1.4" stroke-linecap="round" stroke-linejoin="round"/>
</g>
<defs>
<clipPath id="clip0_2151_1375">
<rect width="13" height="13" fill="white"/>
</clipPath>
</defs>
</svg>
