<svg xmlns="http://www.w3.org/2000/svg" width="24" height="24" viewBox="0 0 24 24" fill="none">
<path d="M12 2C9.38022 2.00673 6.86734 3.03953 5 4.877V3C5 2.73478 4.89464 2.48043 4.70711 2.29289C4.51957 2.10536 4.26522 2 4 2C3.73478 2 3.48043 2.10536 3.29289 2.29289C3.10536 2.48043 3 2.73478 3 3V7.5C3 7.76522 3.10536 8.01957 3.29289 8.20711C3.48043 8.39464 3.73478 8.5 4 8.5H8.5C8.76522 8.5 9.01957 8.39464 9.20711 8.20711C9.39464 8.01957 9.5 7.76522 9.5 7.5C9.5 7.23478 9.39464 6.98043 9.20711 6.79289C9.01957 6.60536 8.76522 6.5 8.5 6.5H6.218C7.12989 5.54129 8.26553 4.82397 9.52303 4.41243C10.7805 4.00089 12.1205 3.90799 13.4228 4.14208C14.725 4.37616 15.9488 4.92991 16.9843 5.75362C18.0197 6.57734 18.8345 7.64524 19.3554 8.86151C19.8763 10.0778 20.0871 11.4044 19.9689 12.7222C19.8506 14.04 19.4071 15.3079 18.6779 16.412C17.9488 17.5161 16.957 18.4219 15.7915 19.0482C14.6259 19.6744 13.3231 20.0015 12 20C11.7348 20 11.4804 20.1054 11.2929 20.2929C11.1054 20.4804 11 20.7348 11 21C11 21.2652 11.1054 21.5196 11.2929 21.7071C11.4804 21.8946 11.7348 22 12 22C14.6522 22 17.1957 20.9464 19.0711 19.0711C20.9464 17.1957 22 14.6522 22 12C22 9.34784 20.9464 6.8043 19.0711 4.92893C17.1957 3.05357 14.6522 2 12 2V2Z" fill="#249af3"/>
<path d="M14 13H12C11.7348 13 11.4804 12.8946 11.2929 12.7071C11.1054 12.5196 11 12.2652 11 12V9C11 8.73478 11.1054 8.48043 11.2929 8.29289C11.4804 8.10536 11.7348 8 12 8C12.2652 8 12.5196 8.10536 12.7071 8.29289C12.8946 8.48043 13 8.73478 13 9V11H14C14.2652 11 14.5196 11.1054 14.7071 11.2929C14.8946 11.4804 15 11.7348 15 12C15 12.2652 14.8946 12.5196 14.7071 12.7071C14.5196 12.8946 14.2652 13 14 13Z" fill="#249af3"/>

</svg>