<svg width="11" height="7" viewBox="0 0 11 7" fill="none" xmlns="http://www.w3.org/2000/svg">
<path d="M10.1861 0.992745L5.50045 5.56025L0.814828 0.992745C0.731111 0.910974 0.618728 0.865195 0.501703 0.865195C0.384677 0.865195 0.272295 0.910974 0.188578 0.992745C0.148042 1.03246 0.115839 1.07987 0.093855 1.13219C0.0718706 1.1845 0.0605469 1.24068 0.0605469 1.29743C0.0605469 1.35418 0.0718706 1.41036 0.093855 1.46268C0.115839 1.515 0.148042 1.5624 0.188578 1.60212L5.17327 6.46212C5.2608 6.54745 5.37821 6.5952 5.50045 6.5952C5.6227 6.5952 5.7401 6.54745 5.82764 6.46212L10.8123 1.60306C10.8532 1.56331 10.8856 1.51579 10.9078 1.4633C10.9299 1.41081 10.9413 1.35441 10.9413 1.29743C10.9413 1.24046 10.9299 1.18406 10.9078 1.13157C10.8856 1.07908 10.8532 1.03155 10.8123 0.991807C10.7286 0.910036 10.6162 0.864258 10.4992 0.864258C10.3822 0.864258 10.2698 0.910036 10.1861 0.991807V0.992745Z" fill="#7F8FA4"/>
</svg>
