<svg width="20" height="20" viewBox="0 0 20 20" fill="none" xmlns="http://www.w3.org/2000/svg">
<path d="M16.25 2.5V17.5H3.75V2.5H16.25ZM16.25 1.25H3.75C3.41848 1.25 3.10054 1.3817 2.86612 1.61612C2.6317 1.85054 2.5 2.16848 2.5 2.5V17.5C2.5 17.8315 2.6317 18.1495 2.86612 18.3839C3.10054 18.6183 3.41848 18.75 3.75 18.75H16.25C16.5815 18.75 16.8995 18.6183 17.1339 18.3839C17.3683 18.1495 17.5 17.8315 17.5 17.5V2.5C17.5 2.16848 17.3683 1.85054 17.1339 1.61612C16.8995 1.3817 16.5815 1.25 16.25 1.25Z" fill="#7F8FA4"/>
<path d="M5.625 14.375H6.875V15.625H5.625V14.375ZM13.125 14.375H14.375V15.625H13.125V14.375ZM5.625 11.25H6.875V12.5H5.625V11.25ZM13.125 11.25H14.375V12.5H13.125V11.25ZM5.625 8.125H6.875V9.375H5.625V8.125ZM9.375 14.375H10.625V15.625H9.375V14.375ZM9.375 11.25H10.625V12.5H9.375V11.25ZM9.375 8.125H10.625V9.375H9.375V8.125ZM13.125 8.125H14.375V9.375H13.125V8.125ZM5.625 4.375H14.375V6.25H5.625V4.375Z" fill="#7F8FA4"/>
</svg>
