<svg width="20" height="20" viewBox="0 0 20 20" fill="none" xmlns="http://www.w3.org/2000/svg">
<g clip-path="url(#clip0_2182_1702)">
<path d="M4.16699 12.5003H3.33366C2.89163 12.5003 2.46771 12.3247 2.15515 12.0122C1.84259 11.6996 1.66699 11.2757 1.66699 10.8337V3.33366C1.66699 2.89163 1.84259 2.46771 2.15515 2.15515C2.46771 1.84259 2.89163 1.66699 3.33366 1.66699H10.8337C11.2757 1.66699 11.6996 1.84259 12.0122 2.15515C12.3247 2.46771 12.5003 2.89163 12.5003 3.33366V4.16699M9.16699 7.50033H16.667C17.5875 7.50033 18.3337 8.24652 18.3337 9.16699V16.667C18.3337 17.5875 17.5875 18.3337 16.667 18.3337H9.16699C8.24652 18.3337 7.50033 17.5875 7.50033 16.667V9.16699C7.50033 8.24652 8.24652 7.50033 9.16699 7.50033Z" stroke="#7F8FA4" stroke-width="1.4" stroke-linecap="round" stroke-linejoin="round"/>
</g>
<defs>
<clipPath id="clip0_2182_1702">
<rect width="20" height="20" fill="white"/>
</clipPath>
</defs>
</svg>
