<svg width="20" height="20" viewBox="0 0 20 20" fill="none" xmlns="http://www.w3.org/2000/svg">
<g clip-path="url(#clip0_2182_1071)">
<path d="M17.7778 2.77734H2.22222C1.63285 2.77734 1.06762 3.01147 0.650874 3.42822C0.234126 3.84496 0 4.4102 0 4.99957L0 14.9996C0 15.5889 0.234126 16.1542 0.650874 16.5709C1.06762 16.9877 1.63285 17.2218 2.22222 17.2218H17.7778C18.3671 17.2218 18.9324 16.9877 19.3491 16.5709C19.7659 16.1542 20 15.5889 20 14.9996V4.99957C20 4.4102 19.7659 3.84496 19.3491 3.42822C18.9324 3.01147 18.3671 2.77734 17.7778 2.77734Z" fill="#003399"/>
<path d="M10.2991 5.39136L10.7708 5.04859H10.188L10.0075 4.49414L9.82747 5.04859H9.24469L9.71635 5.39136L9.5358 5.94581L10.0075 5.60303L10.4791 5.94581L10.2991 5.39136ZM10.2991 15.0208L10.7708 14.678H10.188L10.0075 14.1236L9.82747 14.678H9.24469L9.71635 15.0208L9.5358 15.5753L10.0075 15.2325L10.4791 15.5753L10.2991 15.0208ZM5.48469 10.2058L5.95635 9.86303H5.37302L5.19302 9.30859L5.01247 9.86303H4.42969L4.90135 10.2058L4.72135 10.7603L5.19302 10.4175L5.66469 10.7603L5.48469 10.2058ZM6.09969 7.82525L6.57135 7.48247H5.98802L5.80802 6.92803L5.62802 7.48247H5.04469L5.51635 7.82525L5.33635 8.3797L5.80802 8.03692L6.27969 8.3797L6.09969 7.82525ZM6.09969 12.6136L6.57135 12.2708H5.98802L5.80802 11.7164L5.62802 12.2708H5.04469L5.51635 12.6136L5.33635 13.168L5.80802 12.8253L6.27969 13.168L6.09969 12.6136ZM7.89191 6.03636L8.36358 5.69358H7.78024L7.60024 5.13914L7.42024 5.69358H6.83691L7.30858 6.03636L7.12858 6.59081L7.60024 6.24803L8.07191 6.59081L7.89191 6.03636ZM7.89191 14.4069L8.36358 14.0641H7.78024L7.60024 13.5097L7.42024 14.0641H6.83691L7.30858 14.4069L7.12858 14.9614L7.60024 14.6191L8.07191 14.9614L7.89191 14.4069ZM14.5147 10.2058L14.043 9.86303H14.6264L14.8064 9.30859L14.9869 9.86303H15.5697L15.098 10.2058L15.278 10.7603L14.8064 10.4175L14.3347 10.7603L14.5147 10.2058ZM13.8997 7.82525L13.428 7.48247H14.0114L14.1914 6.92803L14.3714 7.48247H14.9547L14.483 7.82525L14.663 8.3797L14.1914 8.03692L13.7197 8.3797L13.8997 7.82525ZM13.8997 12.6136L13.428 12.2708H14.0114L14.1914 11.7164L14.3714 12.2708H14.9547L14.483 12.6136L14.663 13.168L14.1914 12.8253L13.7197 13.168L13.8997 12.6136ZM12.1075 6.03636L11.6358 5.69358H12.2191L12.3991 5.13914L12.5791 5.69358H13.1625L12.6908 6.03636L12.8708 6.59081L12.3991 6.24803L11.9275 6.59081L12.1075 6.03636ZM12.1075 14.4069L11.6358 14.0641H12.2191L12.3991 13.5097L12.5791 14.0641H13.1625L12.6908 14.4069L12.8708 14.9614L12.3991 14.6191L11.9275 14.9614L12.1075 14.4069Z" fill="#FFCC00"/>
</g>
<defs>
<clipPath id="clip0_2182_1071">
<rect width="20" height="20" fill="white"/>
</clipPath>
</defs>
</svg>
