<svg width="14" height="16" viewBox="0 0 14 16" fill="none" xmlns="http://www.w3.org/2000/svg">
<path d="M0 5.62549V1.75049C0 1.33486 0.334375 1.00049 0.75 1.00049H4.625C4.83125 1.00049 5 1.16924 5 1.37549V2.62549C5 2.83174 4.83125 3.00049 4.625 3.00049H2V5.62549C2 5.83174 1.83125 6.00049 1.625 6.00049H0.375C0.16875 6.00049 0 5.83174 0 5.62549ZM9 1.37549V2.62549C9 2.83174 9.16875 3.00049 9.375 3.00049H12V5.62549C12 5.83174 12.1687 6.00049 12.375 6.00049H13.625C13.8313 6.00049 14 5.83174 14 5.62549V1.75049C14 1.33486 13.6656 1.00049 13.25 1.00049H9.375C9.16875 1.00049 9 1.16924 9 1.37549ZM13.625 10.0005H12.375C12.1687 10.0005 12 10.1692 12 10.3755V13.0005H9.375C9.16875 13.0005 9 13.1692 9 13.3755V14.6255C9 14.8317 9.16875 15.0005 9.375 15.0005H13.25C13.6656 15.0005 14 14.6661 14 14.2505V10.3755C14 10.1692 13.8313 10.0005 13.625 10.0005ZM5 14.6255V13.3755C5 13.1692 4.83125 13.0005 4.625 13.0005H2V10.3755C2 10.1692 1.83125 10.0005 1.625 10.0005H0.375C0.16875 10.0005 0 10.1692 0 10.3755V14.2505C0 14.6661 0.334375 15.0005 0.75 15.0005H4.625C4.83125 15.0005 5 14.8317 5 14.6255Z" fill="white"/>
</svg>
