<svg width="132" height="30" viewBox="0 0 132 30" fill="none" xmlns="http://www.w3.org/2000/svg">
<mask id="mask0_1547_2" style="mask-type:alpha" maskUnits="userSpaceOnUse" x="7" y="10" width="7" height="6">
<path d="M13.2808 10.3471L7.99628 15.5871C7.86963 15.7127 7.95055 15.9188 8.12436 15.9136L9.31903 15.8786C9.57786 15.8708 9.8292 15.7614 10.0178 15.5747L13.2675 12.3523C13.4559 12.1655 13.5663 11.9162 13.574 11.6594L13.6097 10.4741C13.6133 10.3597 13.5231 10.2858 13.425 10.2858C13.3752 10.2858 13.3235 10.3049 13.2808 10.3471Z" fill="white"/>
</mask>
<g mask="url(#mask0_1547_2)">
<path fill-rule="evenodd" clip-rule="evenodd" d="M13.2808 10.3471L7.99628 15.5871C7.86963 15.7127 7.95055 15.9188 8.12436 15.9136L9.31903 15.8786C9.57786 15.8708 9.8292 15.7614 10.0178 15.5747L13.2675 12.3523C13.4559 12.1655 13.5663 11.9162 13.574 11.6594L13.6097 10.4741C13.6133 10.3597 13.5231 10.2858 13.425 10.2858C13.3752 10.2858 13.3235 10.3049 13.2808 10.3471Z" fill="white"/>
</g>
<mask id="mask1_1547_2" style="mask-type:alpha" maskUnits="userSpaceOnUse" x="13" y="15" width="7" height="7">
<path d="M19.1549 15.9772L17.9601 16.0125C17.7012 16.0199 17.4501 16.1293 17.2615 16.3162L14.0118 19.5386C13.8234 19.7255 13.713 19.9747 13.7051 20.2315L13.6692 21.4166C13.664 21.5892 13.8718 21.6694 13.9983 21.5438L19.283 16.3038C19.4079 16.1796 19.3307 15.9771 19.1614 15.9771C19.1592 15.9771 19.1571 15.9771 19.1549 15.9772Z" fill="white"/>
</mask>
<g mask="url(#mask1_1547_2)">
<path fill-rule="evenodd" clip-rule="evenodd" d="M19.1549 15.9772L17.9601 16.0125C17.7012 16.0199 17.4501 16.1293 17.2615 16.3162L14.0118 19.5386C13.8234 19.7255 13.713 19.9747 13.7051 20.2315L13.6692 21.4166C13.664 21.5892 13.8718 21.6694 13.9983 21.5438L19.283 16.3038C19.4079 16.1796 19.3307 15.9771 19.1614 15.9771C19.1592 15.9771 19.1571 15.9771 19.1549 15.9772Z" fill="white"/>
</g>
<mask id="mask2_1547_2" style="mask-type:alpha" maskUnits="userSpaceOnUse" x="14" y="9" width="6" height="7">
<path d="M14.2374 9.98408L14.2371 11.1338C14.2371 11.3829 14.3367 11.6218 14.5145 11.7979L17.574 14.8346C17.7516 15.0107 17.9924 15.1096 18.2435 15.1098L19.4027 15.1099C19.5713 15.1099 19.656 14.9078 19.5366 14.7894L14.5607 9.85118C14.5222 9.8129 14.4746 9.79572 14.4282 9.79572C14.3308 9.79572 14.2374 9.87067 14.2374 9.98408Z" fill="white"/>
</mask>
<g mask="url(#mask2_1547_2)">
<path fill-rule="evenodd" clip-rule="evenodd" d="M14.2374 9.98408L14.2371 11.1338C14.2371 11.3829 14.3367 11.6218 14.5145 11.7979L17.574 14.8346C17.7516 15.0107 17.9924 15.1096 18.2435 15.1098L19.4027 15.1099C19.5713 15.1099 19.656 14.9078 19.5366 14.7894L14.5607 9.85118C14.5222 9.8129 14.4746 9.79572 14.4282 9.79572C14.3308 9.79572 14.2374 9.87067 14.2374 9.98408Z" fill="white"/>
</g>
<mask id="mask3_1547_2" style="mask-type:alpha" maskUnits="userSpaceOnUse" x="7" y="16" width="6" height="6">
<path d="M7.48179 16.8752L12.4577 21.8134C12.577 21.9318 12.781 21.8479 12.781 21.6805L12.7814 20.1417L9.44421 16.83C9.26683 16.6537 9.02604 16.5546 8.77488 16.5546L7.61576 16.5544C7.44713 16.5544 7.36246 16.7568 7.48179 16.8752Z" fill="white"/>
</mask>
<g mask="url(#mask3_1547_2)">
<path fill-rule="evenodd" clip-rule="evenodd" d="M7.48179 16.8752L12.4577 21.8134C12.577 21.9318 12.781 21.8479 12.781 21.6805L12.7814 20.1417L9.44421 16.83C9.26683 16.6537 9.02604 16.5546 8.77488 16.5546L7.61576 16.5544C7.44713 16.5544 7.36246 16.7568 7.48179 16.8752Z" fill="white"/>
</g>
<mask id="mask4_1547_2" style="mask-type:alpha" maskUnits="userSpaceOnUse" x="0" y="0" width="31" height="30">
<path d="M3.81766 0C1.7093 0 0 1.69563 0 3.78712V23.9429L3.97879 19.996C4.17582 19.8007 4.49771 19.8007 4.69456 19.996C4.89141 20.1913 4.89141 20.5107 4.69456 20.706L0 25.363V26.2129C0 26.8159 0.145761 27.384 0.398522 27.8901L4.55237 23.7696C4.74922 23.5744 5.07146 23.5744 5.26813 23.7696C5.46498 23.9647 5.46498 24.2844 5.26813 24.4795L0.976745 28.7366C1.47494 29.2878 2.13194 29.692 2.87807 29.8795L8.35806 24.4432C8.55509 24.2481 8.87716 24.2481 9.07401 24.4432C9.27068 24.6386 9.27068 24.9579 9.07401 25.1532L4.18814 30H20.8101C26.0191 30 30.2419 25.8112 30.2419 20.6435C30.2419 18.5236 29.5308 16.5689 28.3331 15C29.5308 13.4311 30.2419 11.4764 30.2419 9.35653C30.2419 4.18901 26.0191 0 20.8101 0H3.81766ZM9.63598 23.2985L5.97961 19.6698C4.99305 18.6905 4.99358 17.1037 5.98033 16.1252L15.4848 6.70083C16.4716 5.72233 18.0714 5.72268 19.058 6.70171L22.7141 10.3302C23.7007 11.3095 23.7004 12.8963 22.7136 13.8748L13.2091 23.2992C12.7157 23.7882 12.0691 24.0328 11.4228 24.0328C10.776 24.033 10.1294 23.7881 9.63598 23.2985Z" fill="white"/>
</mask>
<g mask="url(#mask4_1547_2)">
<path fill-rule="evenodd" clip-rule="evenodd" d="M3.81766 0C1.7093 0 0 1.69563 0 3.78712V23.9429L3.97879 19.996C4.17582 19.8007 4.49771 19.8007 4.69456 19.996C4.89141 20.1913 4.89141 20.5107 4.69456 20.706L0 25.363V26.2129C0 26.8159 0.145761 27.384 0.398522 27.8901L4.55237 23.7696C4.74922 23.5744 5.07146 23.5744 5.26813 23.7696C5.46498 23.9647 5.46498 24.2844 5.26813 24.4795L0.976745 28.7366C1.47494 29.2878 2.13194 29.692 2.87807 29.8795L8.35806 24.4432C8.55509 24.2481 8.87716 24.2481 9.07401 24.4432C9.27068 24.6386 9.27068 24.9579 9.07401 25.1532L4.18814 30H20.8101C26.0191 30 30.2419 25.8112 30.2419 20.6435C30.2419 18.5236 29.5308 16.5689 28.3331 15C29.5308 13.4311 30.2419 11.4764 30.2419 9.35653C30.2419 4.18901 26.0191 0 20.8101 0H3.81766ZM9.63598 23.2985L5.97961 19.6698C4.99305 18.6905 4.99358 17.1037 5.98033 16.1252L15.4848 6.70083C16.4716 5.72233 18.0714 5.72268 19.058 6.70171L22.7141 10.3302C23.7007 11.3094 23.7004 12.8963 22.7136 13.8748L13.2091 23.2992C12.7157 23.7882 12.0691 24.0328 11.4228 24.0328C10.776 24.033 10.1294 23.7881 9.63598 23.2985Z" fill="white"/>
</g>
<path d="M41.005 21.0212C40.8588 21.0212 40.7393 20.9747 40.6463 20.8817C40.5666 20.7754 40.54 20.6492 40.5666 20.5031L43.3163 7.59163C43.3428 7.44552 43.4159 7.32596 43.5354 7.23298C43.6683 7.12671 43.8078 7.07358 43.9539 7.07358H49.9713C51.1136 7.07358 52.0634 7.23298 52.8206 7.55178C53.591 7.87059 54.1356 8.32886 54.4544 8.92662C54.7865 9.52437 54.8596 10.2616 54.6736 11.1383C54.5806 11.6032 54.4013 12.015 54.1356 12.3737C53.8832 12.719 53.6043 13.0046 53.2988 13.2304C53.0065 13.4563 52.7409 13.6223 52.5018 13.7286C52.9667 13.9677 53.332 14.3529 53.5976 14.8842C53.8633 15.4156 53.9231 16.0266 53.777 16.7173C53.5777 17.6472 53.2323 18.4309 52.7409 19.0685C52.2627 19.7061 51.6184 20.191 50.8081 20.523C50.0111 20.8551 49.0281 21.0212 47.8592 21.0212H41.005ZM45.3885 18.0125H47.6998C48.1514 18.0125 48.5101 17.8796 48.7758 17.614C49.0547 17.335 49.2274 17.0295 49.2938 16.6974C49.3868 16.3521 49.3536 16.0532 49.1942 15.8008C49.0348 15.5351 48.7226 15.4023 48.2577 15.4023H45.9464L45.3885 18.0125ZM46.5641 12.4733H48.6761C49.0879 12.4733 49.42 12.3537 49.6724 12.1146C49.9381 11.8755 50.1107 11.5966 50.1904 11.2778C50.2436 10.959 50.2037 10.68 50.0709 10.4409C49.9381 10.2018 49.6657 10.0823 49.254 10.0823H47.0821L46.5641 12.4733Z" fill="white"/>
<path d="M55.107 21.0212C54.9741 21.0212 54.8612 20.9747 54.7682 20.8817C54.6885 20.7754 54.662 20.6492 54.6885 20.5031L57.4581 7.59163C57.4847 7.44552 57.5578 7.32596 57.6773 7.23298C57.7969 7.12671 57.9297 7.07358 58.0758 7.07358H61.4432C61.5893 7.07358 61.7022 7.12671 61.7819 7.23298C61.8616 7.32596 61.8881 7.44552 61.8616 7.59163L59.1119 20.5031C59.0853 20.6492 59.0123 20.7754 58.8927 20.8817C58.7732 20.9747 58.6404 21.0212 58.4942 21.0212H55.107Z" fill="white"/>
<path d="M61.7964 21.0212C61.6502 21.0212 61.5307 20.9747 61.4377 20.8817C61.358 20.7754 61.3314 20.6492 61.358 20.5031L64.1077 7.59163C64.1342 7.44552 64.2073 7.32596 64.3268 7.23298C64.4597 7.12671 64.5992 7.07358 64.7453 7.07358H69.8262C70.6763 7.07358 71.4733 7.19313 72.2172 7.43223C72.9744 7.67133 73.6252 8.02334 74.1699 8.48826C74.7145 8.9399 75.1063 9.50445 75.3454 10.1819C75.5978 10.8594 75.6443 11.6431 75.4849 12.5331C75.3919 13.1043 75.299 13.609 75.206 14.0474C75.113 14.4857 74.9934 14.9839 74.8473 15.5418C74.5285 16.7904 74.0769 17.8199 73.4924 18.6302C72.9079 19.4404 72.1441 20.0448 71.201 20.4433C70.2712 20.8286 69.1089 21.0212 67.7141 21.0212H61.7964ZM66.2596 17.6339H67.9532C68.3916 17.6339 68.7768 17.5608 69.1089 17.4147C69.4542 17.2686 69.7398 17.0428 69.9657 16.7373C70.2048 16.4185 70.3841 16.0133 70.5036 15.5218C70.6099 15.1366 70.6962 14.7912 70.7627 14.4857C70.8291 14.1802 70.8889 13.8747 70.942 13.5692C71.0084 13.2637 71.0748 12.9249 71.1412 12.553C71.2608 11.8224 71.1612 11.2911 70.8424 10.959C70.5368 10.6269 70.052 10.4609 69.3878 10.4609H67.7938L66.2596 17.6339Z" fill="white"/>
<path d="M81.8722 21.2204C80.9689 21.2204 80.1387 21.1142 79.3815 20.9016C78.6244 20.6758 77.9801 20.3437 77.4488 19.9054C76.9307 19.4537 76.5654 18.8892 76.3529 18.2117C76.1404 17.5343 76.1072 16.7373 76.2533 15.8207C76.3463 15.2761 76.4592 14.6916 76.592 14.0673C76.7381 13.443 76.8776 12.8452 77.0104 12.274C77.3292 11.0785 77.8074 10.0823 78.445 9.28527C79.0826 8.47498 79.8797 7.87059 80.8361 7.47208C81.8057 7.07358 82.9348 6.87433 84.2233 6.87433C85.0469 6.87433 85.8373 6.9806 86.5944 7.19313C87.3516 7.39238 88.0091 7.6979 88.567 8.10969C89.1382 8.52147 89.5566 9.03953 89.8223 9.66385C90.088 10.2749 90.1411 10.9988 89.9817 11.8357C89.9551 11.9552 89.8887 12.0549 89.7824 12.1346C89.6895 12.2143 89.5832 12.2541 89.4636 12.2541H86.0764C85.8904 12.2541 85.7509 12.2143 85.6579 12.1346C85.5782 12.0549 85.5251 11.9154 85.4985 11.7161C85.4853 11.1582 85.3259 10.7797 85.0203 10.5804C84.7281 10.3679 84.3429 10.2616 83.8647 10.2616C83.2802 10.2616 82.7754 10.421 82.3504 10.7398C81.9386 11.0453 81.6397 11.5899 81.4537 12.3737C81.1748 13.4629 80.9357 14.5787 80.7364 15.7211C80.5903 16.5048 80.6501 17.0561 80.9158 17.3749C81.1947 17.6804 81.6264 17.8332 82.2109 17.8332C82.6891 17.8332 83.1208 17.7269 83.506 17.5143C83.9045 17.3018 84.2366 16.9232 84.5023 16.3786C84.6085 16.1661 84.7148 16.0266 84.8211 15.9602C84.9406 15.8805 85.1 15.8406 85.2993 15.8406H88.6866C88.8061 15.8406 88.8991 15.8805 88.9655 15.9602C89.0452 16.0399 89.0718 16.1395 89.0452 16.2591C88.8327 17.0826 88.5139 17.8066 88.0888 18.4309C87.677 19.0419 87.159 19.56 86.5346 19.9851C85.9103 20.3969 85.2063 20.709 84.4226 20.9215C83.6389 21.1208 82.7887 21.2204 81.8722 21.2204Z" fill="white"/>
<path d="M88.9022 21.0212C88.756 21.0212 88.6498 20.9614 88.5834 20.8418C88.5169 20.709 88.5236 20.5762 88.6033 20.4433L95.856 7.69126C95.9357 7.54514 96.0553 7.40567 96.2147 7.27283C96.3741 7.14 96.58 7.07358 96.8324 7.07358H100.578C100.831 7.07358 101.01 7.14 101.116 7.27283C101.223 7.40567 101.282 7.54514 101.296 7.69126L103.149 20.4433C103.175 20.616 103.129 20.7555 103.009 20.8618C102.903 20.968 102.777 21.0212 102.631 21.0212H99.6418C99.416 21.0212 99.2566 20.968 99.1636 20.8618C99.0839 20.7555 99.0308 20.6492 99.0042 20.543L98.7252 18.8892H93.9432L92.947 20.5629C92.8938 20.6692 92.8008 20.7754 92.668 20.8817C92.5485 20.9747 92.3758 21.0212 92.15 21.0212H88.9022ZM95.5571 15.5218H98.526L98.0079 11.0387L95.5571 15.5218Z" fill="white"/>
<path d="M104.966 21.0212C104.833 21.0212 104.727 20.9747 104.647 20.8817C104.568 20.7754 104.541 20.6492 104.568 20.5031L107.297 7.59163C107.324 7.44552 107.404 7.32596 107.536 7.23298C107.669 7.12671 107.802 7.07358 107.935 7.07358H113.614C115.42 7.07358 116.748 7.48537 117.599 8.30894C118.462 9.13251 118.734 10.2815 118.415 11.756C118.216 12.6858 117.831 13.4762 117.26 14.1271C116.702 14.778 116.044 15.2894 115.287 15.6613L116.861 20.3636C116.875 20.4035 116.881 20.4433 116.881 20.4832C116.895 20.5098 116.895 20.543 116.881 20.5828C116.855 20.7024 116.788 20.8086 116.682 20.9016C116.589 20.9813 116.483 21.0212 116.363 21.0212H112.996C112.743 21.0212 112.564 20.9614 112.458 20.8418C112.365 20.709 112.305 20.5895 112.279 20.4832L111.163 16.3786H109.728L108.851 20.5031C108.825 20.6492 108.745 20.7754 108.612 20.8817C108.493 20.9747 108.36 21.0212 108.214 21.0212H104.966ZM110.425 13.091H112.318C112.783 13.091 113.155 12.9648 113.434 12.7124C113.726 12.4467 113.912 12.1213 113.992 11.7361C114.072 11.3376 114.025 10.9988 113.853 10.7199C113.693 10.4409 113.374 10.3015 112.896 10.3015H111.003L110.425 13.091Z" fill="white"/>
<path d="M123.856 21.2204C122.474 21.2204 121.332 21.0278 120.429 20.6426C119.539 20.2574 118.901 19.7526 118.516 19.1283C118.13 18.4907 117.998 17.8132 118.117 17.0959C118.144 16.9764 118.204 16.8767 118.297 16.797C118.39 16.7173 118.496 16.6775 118.615 16.6775H121.783C121.983 16.6775 122.129 16.7107 122.222 16.7771C122.315 16.8303 122.408 16.91 122.501 17.0162C122.58 17.1623 122.687 17.3018 122.82 17.4346C122.966 17.5542 123.152 17.6538 123.377 17.7335C123.617 17.7999 123.896 17.8332 124.214 17.8332C124.825 17.8332 125.317 17.7535 125.689 17.5941C126.074 17.4214 126.3 17.1889 126.366 16.8967C126.419 16.6709 126.366 16.4849 126.207 16.3388C126.061 16.1926 125.782 16.0598 125.37 15.9403C124.971 15.8207 124.427 15.6945 123.736 15.5617C122.74 15.389 121.91 15.1101 121.245 14.7248C120.595 14.3396 120.136 13.8415 119.871 13.2304C119.605 12.6061 119.565 11.8689 119.751 11.0188C120.017 9.73026 120.701 8.72072 121.803 7.99014C122.906 7.24626 124.334 6.87433 126.087 6.87433C126.964 6.87433 127.754 7.00052 128.458 7.25291C129.162 7.50529 129.753 7.83738 130.232 8.24916C130.723 8.64767 131.082 9.07938 131.308 9.5443C131.547 10.0092 131.626 10.4542 131.547 10.8793C131.533 10.9988 131.474 11.1051 131.367 11.1981C131.274 11.2778 131.175 11.3176 131.069 11.3176H127.741C127.568 11.3176 127.429 11.2911 127.323 11.2379C127.23 11.1848 127.143 11.0985 127.064 10.9789C127.037 10.7929 126.904 10.6269 126.665 10.4808C126.439 10.3347 126.134 10.2616 125.749 10.2616C125.297 10.2616 124.925 10.3413 124.633 10.5007C124.354 10.6468 124.181 10.866 124.115 11.1582C124.075 11.3575 124.115 11.5302 124.234 11.6763C124.354 11.8224 124.586 11.9552 124.932 12.0748C125.277 12.1811 125.768 12.3006 126.406 12.4334C127.641 12.6194 128.604 12.905 129.295 13.2902C129.999 13.6754 130.464 14.1736 130.69 14.7846C130.929 15.3824 130.962 16.0997 130.79 16.9365C130.484 18.3446 129.747 19.4139 128.578 20.1445C127.422 20.8618 125.848 21.2204 123.856 21.2204Z" fill="white"/>
</svg>
