<svg width="19" height="19" viewBox="0 0 19 19" fill="none" xmlns="http://www.w3.org/2000/svg">
<path d="M16.763 7.63117C16.4832 7.33875 16.1938 7.03742 16.0847 6.77246C15.9838 6.52977 15.9778 6.1275 15.9719 5.73785C15.9607 5.01348 15.9489 4.19262 15.3781 3.62187C14.8074 3.05113 13.9865 3.03926 13.2621 3.02812C12.8725 3.02219 12.4702 3.01625 12.2275 2.91531C11.9633 2.80621 11.6612 2.51676 11.3688 2.23695C10.8567 1.74488 10.2748 1.1875 9.5 1.1875C8.72516 1.1875 8.14402 1.74488 7.63117 2.23695C7.33875 2.51676 7.03742 2.80621 6.77246 2.91531C6.53125 3.01625 6.1275 3.02219 5.73785 3.02812C5.01348 3.03926 4.19262 3.05113 3.62187 3.62187C3.05113 4.19262 3.04297 5.01348 3.02812 5.73785C3.02219 6.1275 3.01625 6.52977 2.91531 6.77246C2.80621 7.03668 2.51676 7.33875 2.23695 7.63117C1.74488 8.14328 1.1875 8.72516 1.1875 9.5C1.1875 10.2748 1.74488 10.856 2.23695 11.3688C2.51676 11.6612 2.80621 11.9626 2.91531 12.2275C3.01625 12.4702 3.02219 12.8725 3.02812 13.2621C3.03926 13.9865 3.05113 14.8074 3.62187 15.3781C4.19262 15.9489 5.01348 15.9607 5.73785 15.9719C6.1275 15.9778 6.52977 15.9838 6.77246 16.0847C7.03668 16.1938 7.33875 16.4832 7.63117 16.763C8.14328 17.2551 8.72516 17.8125 9.5 17.8125C10.2748 17.8125 10.856 17.2551 11.3688 16.763C11.6612 16.4832 11.9626 16.1938 12.2275 16.0847C12.4702 15.9838 12.8725 15.9778 13.2621 15.9719C13.9865 15.9607 14.8074 15.9489 15.3781 15.3781C15.9489 14.8074 15.9607 13.9865 15.9719 13.2621C15.9778 12.8725 15.9838 12.4702 16.0847 12.2275C16.1938 11.9633 16.4832 11.6612 16.763 11.3688C17.2551 10.8567 17.8125 10.2748 17.8125 9.5C17.8125 8.72516 17.2551 8.14402 16.763 7.63117ZM12.8888 8.13883L8.73258 12.2951C8.67744 12.3503 8.61195 12.3941 8.53987 12.424C8.46779 12.4538 8.39053 12.4692 8.3125 12.4692C8.23447 12.4692 8.15721 12.4538 8.08513 12.424C8.01305 12.3941 7.94756 12.3503 7.89242 12.2951L6.11117 10.5138C6.05601 10.4587 6.01225 10.3932 5.98239 10.3211C5.95254 10.249 5.93717 10.1718 5.93717 10.0938C5.93717 10.0157 5.95254 9.93848 5.98239 9.86641C6.01225 9.79433 6.05601 9.72884 6.11117 9.67367C6.22258 9.56226 6.37369 9.49967 6.53125 9.49967C6.60927 9.49967 6.68652 9.51504 6.75859 9.54489C6.83067 9.57475 6.89616 9.61851 6.95133 9.67367L8.3125 11.0356L12.0487 7.29867C12.1038 7.24351 12.1693 7.19975 12.2414 7.16989C12.3135 7.14004 12.3907 7.12467 12.4688 7.12467C12.5468 7.12467 12.624 7.14004 12.6961 7.16989C12.7682 7.19975 12.8337 7.24351 12.8888 7.29867C12.944 7.35384 12.9878 7.41933 13.0176 7.49141C13.0475 7.56348 13.0628 7.64073 13.0628 7.71875C13.0628 7.79677 13.0475 7.87402 13.0176 7.94609C12.9878 8.01817 12.944 8.08366 12.8888 8.13883Z" fill="#219AF3"/>
</svg>
