<svg width="16" height="16" viewBox="0 0 16 16" fill="none" xmlns="http://www.w3.org/2000/svg">
<g clip-path="url(#clip0_2298_889)">
<rect x="4" y="2" width="8" height="12" fill="white"/>
<path d="M8 0C3.58175 0 0 3.58162 0 8C0 12.4184 3.58175 16 8 16C12.4183 16 16 12.4184 16 8C16 3.58162 12.4183 0 8 0ZM6.48994 11.8373C6.48994 11.2869 6.93622 10.8407 7.48659 10.8407C8.03656 10.8407 8.48284 11.2869 8.48284 11.8373C8.48284 12.3872 8.03656 12.8337 7.48659 12.8337C6.93622 12.8337 6.48994 12.3872 6.48994 11.8373ZM10.7383 6.83913C10.6259 7.14516 10.4632 7.41066 10.2791 7.6315C9.90884 8.07362 9.47006 8.34144 9.109 8.53903C8.86778 8.66947 8.65484 8.76994 8.52247 8.84431C8.43169 8.89444 8.3825 8.9365 8.35822 8.96387C8.33422 8.99281 8.32606 9.00469 8.31147 9.05219C8.30294 9.08372 8.29403 9.13381 8.29403 9.21128C8.29403 9.42591 8.29403 9.60228 8.29403 9.60228C8.29403 9.80453 8.13003 9.96878 7.92769 9.96878H7.04481C6.84247 9.96878 6.67819 9.80453 6.67819 9.60228C6.67819 9.60228 6.67819 9.42587 6.67819 9.21128C6.67819 9.01009 6.70169 8.81303 6.75334 8.6245C6.80447 8.43675 6.88506 8.25831 6.98797 8.10281C7.19419 7.78772 7.47366 7.57775 7.73747 7.43156C7.96875 7.30425 8.19756 7.19859 8.40984 7.07903C8.622 6.9605 8.81119 6.83184 8.95053 6.69241C9.04391 6.59944 9.11647 6.50334 9.172 6.39491C9.24497 6.25028 9.29559 6.08031 9.29675 5.82025C9.29713 5.74328 9.27494 5.64206 9.2145 5.52634C9.15431 5.41116 9.05619 5.28591 8.925 5.17353C8.66094 4.94703 8.27366 4.7815 7.82956 4.78225C7.32066 4.78406 6.98 4.90337 6.71747 5.05162C6.45622 5.20087 6.37281 5.35147 6.37281 5.35147C6.23944 5.46766 6.04147 5.47178 5.90328 5.36128L5.22484 4.81763C5.13988 4.74972 5.08978 4.64769 5.08747 4.53869C5.0855 4.42997 5.132 4.32588 5.21438 4.25434C5.21438 4.25434 5.42578 3.92841 5.91597 3.64872C6.40409 3.36772 7.05103 3.16472 7.82959 3.16656C8.46131 3.16656 9.04331 3.34037 9.52547 3.62472C10.0078 3.91059 10.3972 4.30422 10.6458 4.77709C10.8108 5.09191 10.9122 5.44678 10.9125 5.82022C10.9128 6.18881 10.8515 6.53306 10.7383 6.83913Z" fill="#219AF3"/>
</g>
<defs>
<clipPath id="clip0_2298_889">
<rect width="16" height="16" fill="white"/>
</clipPath>
</defs>
</svg>
