<?xml version="1.0" encoding="utf-8"?>
<!-- Generator: Adobe Illustrator 23.0.1, SVG Export Plug-In . SVG Version: 6.00 Build 0)  -->
<svg version="1.1" id="Capa_1" height="20px" width="20px" xmlns="http://www.w3.org/2000/svg" xmlns:xlink="http://www.w3.org/1999/xlink" x="0px" y="0px"
	 viewBox="0 0 512 512" style="enable-background:new 0 0 512 512;" xml:space="preserve">
<style type="text/css">
	.st0{fill:#7F8FA4;}
</style>
<g>
	<g>
		<path class="st0" d="M346,449c-5.5,0-10,4.5-10,10s4.5,10,10,10s10-4.5,10-10S351.5,449,346,449z"/>
	</g>
</g>
<g>
	<g>
		<path class="st0" d="M440.4,359.8c-10.2-15-24.5-26.4-41.3-33.1l-73.4-29C344.9,279,356,253.3,356,226c0-10.8-1.7-21.3-5-31.3
			c3.1-1.8,5-5,5-8.7v-30.6l17.5-34.9l17-8.5c3.4-1.7,5.5-5.2,5.5-8.9V73c0-4.3-2.8-8.1-6.8-9.5L360.7,54L292,2c-1.7-1.3-3.9-2-6-2
			h-60c-2.2,0-4.3,0.7-6,2l-68.7,52l-28.4,9.5c-4.1,1.4-6.8,5.2-6.8,9.5v30c0,3.8,2.1,7.2,5.5,8.9l17,8.5l17.5,34.9V186
			c0,3.6,2,6.9,5,8.7c-3.3,10.1-5,20.6-5,31.3c0,27.3,11.1,53,30.2,71.7l-73.4,29c-16.8,6.7-31.1,18.1-41.3,33.1
			c-10.2,15-15.6,32.5-15.6,50.6V502c0,5.5,4.5,10,10,10h180c0,0,0,0,0,0c0,0,0,0,0,0H266c0,0,0,0,0,0c0,0,0,0,0,0h180
			c5.5,0,10-4.5,10-10v-91.6C456,392.3,450.6,374.8,440.4,359.8z M357.2,331.6L296,433v-30.3c0-6.5-2.1-12.9-6-18l-17.7-23.5
			c8.2-5.4,13.7-14.6,13.7-25.1v-14.6c7.4-2.3,14.6-5.5,21.3-9.5L357.2,331.6z M154.9,108.5c-1-1.9-2.5-3.5-4.5-4.5L136,96.8V80.2
			l23.2-7.7c1-0.3,2-0.9,2.9-1.5l67.3-51h53.3L350,71c0.9,0.7,1.8,1.2,2.9,1.5l23.2,7.7v16.6l-14.5,7.2c-1.9,1-3.5,2.5-4.5,4.5
			L339.8,143H172.2L154.9,108.5z M176,163h160v15.8l-26.2,8.6c-17.5,5.7-35.6,8.6-54,8.6c-9.2,0-18.4-0.7-27.5-2.2
			c-9-1.5-18.1-3.7-26.8-6.6l-19.3-6.4c-0.9-1-1.9-1.9-3.2-2.5c-1-0.5-2-0.8-3.1-0.9V163z M176,226c0-8.6,1.3-16.9,3.9-24.9
			l15.4,5.1c9.8,3.2,19.8,5.7,29.9,7.3c10.1,1.6,20.4,2.5,30.7,2.5c20.5,0,40.7-3.2,60.2-9.6l16-5.2c2.6,8,3.9,16.3,3.9,24.9
			c0,26.5-13.1,51.3-35.1,66.2c-0.2,0.1-0.3,0.2-0.5,0.3c-8.1,5.5-17.1,9.3-26.7,11.5c-11.6,2.6-24,2.6-35.6,0
			c-9.6-2.2-18.7-6.1-26.9-11.6C189.2,277.5,176,252.7,176,226z M266,325.5V336c0,5.5-4.5,10-10,10c-2.7,0-5.2-1-7.1-2.9
			c-1.9-1.9-2.9-4.4-2.9-7.1v-10.5c3.3,0.3,6.7,0.5,10,0.5S262.7,325.8,266,325.5z M204.7,311.8c6.7,4,13.8,7.2,21.3,9.6V336
			c0,8,3.1,15.5,8.8,21.2c1.5,1.5,3.1,2.8,4.9,3.9L222,384.7c-3.9,5.2-6,11.5-6,18V433l-61.2-101.4L204.7,311.8z M76,492v-81.6
			c0-28.9,17.4-54.4,44.2-65.1l15.7-6.2l80.6,133.6l11.7,19.3H76z M276,466.1L260.4,492h-8.7L236,466.1v-63.4c0-2.2,0.7-4.3,2-6
			l18-24l18,24c1.3,1.7,2,3.8,2,6L276,466.1L276,466.1z M283.7,492L376,339.1l15.7,6.2c26.9,10.6,44.2,36.2,44.2,65.1V492H283.7z"/>
	</g>
</g>
<g>
	<g>
		<path class="st0" d="M256,43c-22.1,0-40,17.9-40,40s17.9,40,40,40s40-17.9,40-40S278.1,43,256,43z M256,103c-11,0-20-9-20-20
			s9-20,20-20c11,0,20,9,20,20S267,103,256,103z"/>
	</g>
</g>
<g>
	<g>
		<path class="st0" d="M406,449h-20c-5.5,0-10,4.5-10,10s4.5,10,10,10h20c5.5,0,10-4.5,10-10S411.5,449,406,449z"/>
	</g>
</g>
</svg>
