<svg width="17" height="9" viewBox="0 0 17 9" fill="none" xmlns="http://www.w3.org/2000/svg">
<g clip-path="url(#clip0_585_679)">
<path fill-rule="evenodd" clip-rule="evenodd" d="M1.84996 4.28454C-1.22548 5.95349 7.0587 6.96717 8.92499 6.95075V5.93297L10.4759 7.46512L8.92499 9V8.04651C5.17442 8.18741 -3.65346 5.80027 1.65627 3.81943C1.70608 3.97401 1.76695 4.12038 1.83612 4.25718L1.84996 4.28454ZM14.9915 1.1368C14.9915 0.779754 15.0565 0.529412 15.1865 0.387141C15.3166 0.24487 15.5144 0.173735 15.7814 0.173735C15.9087 0.173735 16.0152 0.19015 16.0969 0.220246C16.1785 0.25171 16.2463 0.291382 16.2975 0.341997C16.35 0.391245 16.3902 0.444596 16.4206 0.499316C16.451 0.554036 16.4745 0.618331 16.4925 0.692202C16.5285 0.831737 16.5451 0.978112 16.5451 1.13133C16.5451 1.47196 16.487 1.7223 16.3694 1.87962C16.2532 2.03694 16.0526 2.11628 15.7662 2.11628C15.6071 2.11628 15.4771 2.09029 15.3788 2.04104C15.2806 1.99042 15.199 1.91655 15.1367 1.81943C15.0911 1.74966 15.0551 1.65527 15.0302 1.53625C15.0039 1.4145 14.9915 1.28317 14.9915 1.1368ZM3.66229 1.43502L2.41718 1.21614C2.52094 0.824897 2.71877 0.52394 3.01345 0.314637C3.30674 0.105335 3.72317 0 4.26133 0C4.87974 0 5.32522 0.113543 5.60191 0.341997C5.87722 0.570451 6.01418 0.857729 6.01418 1.20246C6.01418 1.40492 5.95746 1.58824 5.84678 1.75103C5.73472 1.91518 5.56732 2.05882 5.34182 2.18194C5.52444 2.22709 5.66555 2.27907 5.76101 2.33926C5.91872 2.43502 6.04047 2.56224 6.12763 2.71819C6.21478 2.87551 6.25905 3.06156 6.25905 3.27907C6.25905 3.55267 6.18711 3.81395 6.04323 4.06566C5.89797 4.31601 5.69045 4.50889 5.41929 4.64432C5.14813 4.77975 4.7912 4.84679 4.34849 4.84679C3.91823 4.84679 3.5779 4.79617 3.33026 4.69631C3.08124 4.59644 2.87649 4.45007 2.716 4.25581C2.55552 4.06293 2.43239 3.81943 2.34662 3.52668L3.66506 3.35294C3.71763 3.6156 3.79649 3.79891 3.90578 3.9015C4.01369 4.00274 4.15204 4.05472 4.32082 4.05472C4.49652 4.05472 4.64317 3.99042 4.76076 3.8632C4.87836 3.73598 4.93646 3.56498 4.93646 3.35157C4.93646 3.13406 4.87974 2.9658 4.76768 2.84679C4.65562 2.72777 4.50206 2.66758 4.30837 2.66758C4.20599 2.66758 4.0635 2.6922 3.88365 2.74419L3.95144 1.81259C4.02338 1.82353 4.0801 1.829 4.12022 1.829C4.29039 1.829 4.43288 1.77428 4.54633 1.66621C4.65977 1.55814 4.71788 1.43092 4.71788 1.28181C4.71788 1.13817 4.67499 1.02462 4.58921 0.941176C4.50344 0.856361 4.38446 0.813953 4.23643 0.813953C4.08148 0.813953 3.95697 0.860465 3.86013 0.95212C3.7619 1.04241 3.69688 1.20383 3.66229 1.43502ZM10.397 1.13133L9.08547 1.29001C9.05088 1.10944 8.99416 0.983584 8.91392 0.909713C8.8323 0.835841 8.73269 0.798906 8.61509 0.798906C8.40204 0.798906 8.23602 0.904241 8.11843 1.11765C8.03265 1.27223 7.96763 1.59918 7.92751 2.10123C8.08523 1.94254 8.24709 1.82627 8.41172 1.75103C8.57774 1.67579 8.77004 1.63748 8.98724 1.63748C9.41058 1.63748 9.76752 1.78659 10.0594 2.08482C10.3513 2.3844 10.498 2.76334 10.498 3.22161C10.498 3.53078 10.4247 3.81259 10.2766 4.06977C10.1286 4.32558 9.92385 4.51984 9.66237 4.65116C9.39952 4.78249 9.07164 4.84815 8.67597 4.84815C8.20144 4.84815 7.82098 4.76881 7.53461 4.60739C7.24823 4.44733 7.01858 4.19289 6.84703 3.84268C6.67548 3.49248 6.5897 3.02873 6.5897 2.45007C6.5897 1.60465 6.76955 0.984952 7.13064 0.590971C7.48895 0.19699 7.98838 0 8.62754 0C9.00523 0 9.30267 0.0424077 9.52126 0.128591C9.73985 0.214774 9.92247 0.341997 10.0663 0.506156C10.2116 0.673051 10.3223 0.880985 10.397 1.13133ZM7.97178 3.22161C7.97178 3.47606 8.03681 3.67442 8.16547 3.81806C8.29551 3.9617 8.45323 4.0342 8.64138 4.0342C8.81431 4.0342 8.95957 3.96854 9.07579 3.83858C9.192 3.70862 9.2501 3.51436 9.2501 3.25581C9.2501 2.99179 9.18923 2.78933 9.06887 2.65116C8.94712 2.513 8.79771 2.44323 8.61786 2.44323C8.43524 2.44323 8.28029 2.51026 8.15578 2.64569C8.03265 2.77975 7.97178 2.97127 7.97178 3.22161ZM10.7788 2.40356C10.7788 1.513 10.9407 0.889193 11.2658 0.533516C11.5895 0.177839 12.0848 0 12.7475 0C13.0671 0 13.3286 0.0396717 13.5333 0.116279C13.7381 0.194254 13.9055 0.295486 14.0341 0.419973C14.1642 0.54446 14.2665 0.675787 14.3399 0.812585C14.4146 0.950752 14.4741 1.11081 14.5197 1.29412C14.6083 1.64295 14.6525 2.00821 14.6525 2.38851C14.6525 3.2394 14.5073 3.86047 14.2154 4.25445C13.9248 4.64843 13.424 4.84542 12.7115 4.84542C12.3131 4.84542 11.9907 4.78249 11.7445 4.65663C11.4982 4.53078 11.2976 4.3461 11.1399 4.1026C11.0265 3.93023 10.9365 3.69494 10.8729 3.39535C10.8106 3.09713 10.7788 2.76607 10.7788 2.40356ZM12.0834 2.40629C12.0834 3.00274 12.136 3.4104 12.2439 3.62928C12.3504 3.84815 12.5054 3.95622 12.7088 3.95622C12.843 3.95622 12.9578 3.90971 13.056 3.81806C13.1542 3.72503 13.2262 3.57729 13.2718 3.37756C13.3189 3.17647 13.341 2.86457 13.341 2.44049C13.341 1.81806 13.2884 1.40082 13.1805 1.18468C13.074 0.971272 12.9135 0.863201 12.7005 0.863201C12.4819 0.863201 12.3255 0.97264 12.2273 1.19015C12.1319 1.4104 12.0834 1.81532 12.0834 2.40629ZM15.5144 1.13817C15.5144 1.37756 15.5352 1.54036 15.5781 1.62791C15.621 1.71546 15.6832 1.75923 15.7648 1.75923C15.8188 1.75923 15.8644 1.74145 15.9046 1.70315C15.9433 1.66621 15.9724 1.60739 15.9917 1.52668C16.0097 1.44596 16.0194 1.32148 16.0194 1.15185C16.0194 0.902873 15.9986 0.73461 15.9558 0.648427C15.9129 0.562243 15.8492 0.519836 15.7634 0.519836C15.6763 0.519836 15.6127 0.563612 15.5739 0.651163C15.5338 0.738714 15.5144 0.901505 15.5144 1.13817ZM15.1215 4.13543C16.5825 4.87004 16.2338 5.91245 13.6467 6.54583C12.9135 6.72503 12.0848 6.88783 11.1759 6.95486V7.78249C12.1872 7.71272 13.128 7.4829 13.9511 7.28591C17.8414 6.35431 17.7058 4.69083 15.246 3.75239C15.2114 3.88782 15.1699 4.01505 15.1215 4.13543Z" fill="white"/>
</g>
<defs>
<clipPath id="clip0_585_679">
<rect width="17" height="9" fill="white"/>
</clipPath>
</defs>
</svg>
