<svg width="21" height="20" viewBox="0 0 21 20" fill="none" xmlns="http://www.w3.org/2000/svg">
<path d="M3.87891 5.8335V5.00016C3.87891 4.55814 4.0545 4.13421 4.36706 3.82165C4.67962 3.50909 5.10355 3.3335 5.54557 3.3335H7.21224M3.87891 14.1668V15.0002C3.87891 15.4422 4.0545 15.8661 4.36706 16.1787C4.67962 16.4912 5.10355 16.6668 5.54557 16.6668H7.21224M13.8789 3.3335H15.5456C15.9876 3.3335 16.4115 3.50909 16.7241 3.82165C17.0366 4.13421 17.2122 4.55814 17.2122 5.00016V5.8335M13.8789 16.6668H15.5456C15.9876 16.6668 16.4115 16.4912 16.7241 16.1787C17.0366 15.8661 17.2122 15.4422 17.2122 15.0002V14.1668M8.87891 9.16683V10.8335M16.3789 9.16683V10.8335M4.71224 9.16683H5.54557V10.8335H4.71224V9.16683ZM12.2122 9.16683H13.0456V10.8335H12.2122V9.16683Z" stroke="#7F8FA4" stroke-width="1.4" stroke-linecap="round" stroke-linejoin="round"/>
</svg>
