<svg width="20" height="20" viewBox="0 0 20 20" fill="none" xmlns="http://www.w3.org/2000/svg">
<path d="M10.0003 4.16634C11.8789 4.16634 13.6806 4.91262 15.009 6.241C16.3374 7.56938 17.0837 9.37106 17.0837 11.2497C17.0837 13.1283 16.3374 14.93 15.009 16.2583C13.6806 17.5867 11.8789 18.333 10.0003 18.333C8.12171 18.333 6.32004 17.5867 4.99165 16.2583C3.66327 14.93 2.91699 13.1283 2.91699 11.2497C2.91699 9.37106 3.66327 7.56938 4.99165 6.241C6.32004 4.91262 8.12171 4.16634 10.0003 4.16634V4.16634ZM10.0003 5.41634C8.45323 5.41634 6.9695 6.03092 5.87554 7.12489C4.78157 8.21885 4.16699 9.70258 4.16699 11.2497C4.16699 12.7968 4.78157 14.2805 5.87554 15.3745C6.9695 16.4684 8.45323 17.083 10.0003 17.083C11.5474 17.083 13.0312 16.4684 14.1251 15.3745C15.2191 14.2805 15.8337 12.7968 15.8337 11.2497C15.8337 9.70258 15.2191 8.21885 14.1251 7.12489C13.0312 6.03092 11.5474 5.41634 10.0003 5.41634V5.41634ZM10.0003 6.66634C10.1514 6.66635 10.2973 6.72104 10.4111 6.82031C10.5249 6.91958 10.599 7.05671 10.6195 7.20634L10.6253 7.29134V11.0413C10.6253 11.1997 10.5651 11.3521 10.457 11.4678C10.3489 11.5835 10.2009 11.6539 10.0429 11.6647C9.88494 11.6755 9.72875 11.6259 9.60591 11.526C9.48307 11.426 9.40274 11.2832 9.38116 11.1263L9.37533 11.0413V7.29134C9.37533 7.12558 9.44117 6.96661 9.55838 6.8494C9.67559 6.73219 9.83457 6.66634 10.0003 6.66634V6.66634ZM15.9562 4.26134L16.0253 4.31134L16.9903 5.11467C17.1112 5.2163 17.1891 5.35988 17.2084 5.51658C17.2277 5.67328 17.1869 5.83148 17.0944 5.95939C17.0018 6.0873 16.8643 6.17544 16.7094 6.2061C16.5545 6.23676 16.3938 6.20767 16.2595 6.12467L16.1912 6.07467L15.2253 5.27134C15.1045 5.16972 15.0266 5.02613 15.0073 4.86943C14.988 4.71274 15.0287 4.55454 15.1213 4.42663C15.2138 4.29872 15.3514 4.21058 15.5062 4.17992C15.6611 4.14925 15.8219 4.17834 15.9562 4.26134V4.26134ZM11.8753 2.08301C12.0337 2.08306 12.1861 2.14321 12.3018 2.25132C12.4175 2.35943 12.4879 2.50742 12.4987 2.66541C12.5095 2.82339 12.4599 2.97958 12.36 3.10242C12.26 3.22526 12.1172 3.30559 11.9603 3.32717L11.8753 3.33301H8.12533C7.96697 3.33296 7.81454 3.2728 7.69883 3.1647C7.58312 3.05659 7.51276 2.90859 7.50197 2.75061C7.49118 2.59262 7.54075 2.43643 7.64069 2.31359C7.74062 2.19075 7.88345 2.11043 8.04033 2.08884L8.12533 2.08301H11.8753Z" fill="#7F8FA4"/>
</svg>
