<svg width="20" height="20" viewBox="0 0 20 20" fill="none" xmlns="http://www.w3.org/2000/svg">
<path d="M13.334 17.5V15.8333C13.334 14.9493 12.9828 14.1014 12.3577 13.4763C11.7326 12.8512 10.8847 12.5 10.0007 12.5H4.16732C3.28326 12.5 2.43542 12.8512 1.8103 13.4763C1.18517 14.1014 0.833984 14.9493 0.833984 15.8333V17.5M16.6673 6.66667V11.6667M19.1673 9.16667H14.1673M10.4173 5.83333C10.4173 7.67428 8.92493 9.16667 7.08398 9.16667C5.24303 9.16667 3.75065 7.67428 3.75065 5.83333C3.75065 3.99238 5.24303 2.5 7.08398 2.5C8.92493 2.5 10.4173 3.99238 10.4173 5.83333Z" stroke="white" stroke-width="1.4" stroke-linecap="round" stroke-linejoin="round"/>
</svg>
